<svg width="17" height="15" viewBox="0 0 17 15" fill="none" xmlns="http://www.w3.org/2000/svg">
<path fill-rule="evenodd" clip-rule="evenodd" d="M8.57239 0.838654L8.94499 1.03476L15.1063 4.27762L16.4514 4.98556L15.1063 5.69349L13.6788 6.44481L15.1063 7.19616L16.4514 7.9041L15.1063 8.61203L13.6788 9.36335L15.1063 10.1147L16.4514 10.8226L15.1063 11.5306L8.94498 14.7733L8.57239 14.9694L8.1998 14.7733L2.03844 11.5306L0.693359 10.8226L2.03843 10.1147L3.46597 9.36335L2.03844 8.61203L0.693359 7.9041L2.03843 7.19616L3.46597 6.44481L2.03844 5.69349L0.693359 4.98556L2.03843 4.27762L8.19979 1.03476L8.57239 0.838654ZM5.18365 7.34884L4.1287 7.90408L5.55624 8.65541L8.57239 10.2428L11.5885 8.65541L13.0161 7.90408L11.9611 7.34884L8.94498 8.93627L8.57239 9.13237L8.1998 8.93627L5.18365 7.34884ZM5.18365 10.2674L4.12871 10.8226L8.57239 13.1614L13.0161 10.8226L11.9611 10.2674L8.94498 11.8548L8.57239 12.0509L8.1998 11.8548L5.18365 10.2674ZM4.12871 4.98555L5.55624 5.73687L8.57239 7.3243L11.5885 5.73687L13.0161 4.98555L8.57239 2.64674L4.12871 4.98555Z" fill="#4A5056"/>
</svg>
