<svg width="25" height="23" viewBox="0 0 25 23" fill="none" xmlns="http://www.w3.org/2000/svg">
<path fill-rule="evenodd" clip-rule="evenodd" d="M12.2177 0L12.5903 0.196108L23.0903 5.72249L24.4353 6.43043L23.0903 7.13836L19.7103 8.91724L23.0903 10.6962L24.4353 11.4041L23.0903 12.112L19.7103 13.8909L23.0903 15.6699L24.4353 16.3778L23.0903 17.0857L12.5903 22.612L12.2177 22.8081L11.8451 22.612L1.34508 17.0857L0 16.3778L1.34507 15.6699L4.725 13.8909L1.34508 12.112L1.19209e-07 11.4041L1.34507 10.6962L4.725 8.91725L1.34508 7.13836L0 6.43043L1.34507 5.72249L11.8451 0.196108L12.2177 0ZM6.44268 9.82127L3.43535 11.4041L6.81527 13.183L12.2177 16.0263L17.6201 13.183L21 11.4041L17.9927 9.82127L12.5903 12.6646L12.2177 12.8607L11.8451 12.6646L6.44268 9.82127ZM6.44268 14.795L3.43535 16.3778L12.2177 21L21 16.3778L17.9927 14.795L12.5903 17.6383L12.2177 17.8344L11.8451 17.6383L6.44268 14.795ZM3.43535 6.43042L6.81527 8.2093L12.2177 11.0526L17.6201 8.2093L21 6.43042L12.2177 1.80808L3.43535 6.43042Z" fill="#4A5056"/>
</svg>
