<svg width="23" height="20" viewBox="0 0 23 20" fill="none" xmlns="http://www.w3.org/2000/svg">
<path fill-rule="evenodd" clip-rule="evenodd" d="M6.7861 2.87349C7.13546 1.61984 8.28567 0.700012 9.65072 0.700012C11.0158 0.700012 12.166 1.61984 12.5153 2.87349H22.1482H22.9482V4.47349H22.1482H12.5153C12.166 5.72713 11.0158 6.64696 9.65072 6.64696C8.28567 6.64696 7.13546 5.72713 6.7861 4.47349H1.5002H0.700195V2.87349H1.5002H6.7861ZM9.65072 2.30001C8.89217 2.30001 8.27725 2.91494 8.27725 3.67349C8.27725 4.43203 8.89217 5.04696 9.65072 5.04696C10.4093 5.04696 11.0242 4.43203 11.0242 3.67349C11.0242 2.91494 10.4093 2.30001 9.65072 2.30001ZM14.3933 9.3939C14.7426 8.14026 15.8928 7.22043 17.2579 7.22043C18.6229 7.22043 19.7731 8.14026 20.1225 9.3939H22.1482H22.9482V10.9939H22.1482H20.1225C19.7731 12.2475 18.6229 13.1674 17.2579 13.1674C15.8928 13.1674 14.7426 12.2475 14.3933 10.9939H1.5002H0.700195V9.3939H1.5002H14.3933ZM17.2579 8.82043C16.4993 8.82043 15.8844 9.43536 15.8844 10.1939C15.8844 10.9525 16.4993 11.5674 17.2579 11.5674C18.0164 11.5674 18.6313 10.9525 18.6313 10.1939C18.6313 9.43536 18.0164 8.82043 17.2579 8.82043ZM3.52589 15.9143C3.87526 14.6607 5.02546 13.7408 6.39051 13.7408C7.75555 13.7408 8.90576 14.6607 9.25513 15.9143H22.1482H22.9482V17.5143H22.1482H9.25513C8.90576 18.768 7.75555 19.6878 6.39051 19.6878C5.02546 19.6878 3.87526 18.768 3.52589 17.5143H1.5002H0.700195V15.9143H1.5002H3.52589ZM6.39051 15.3408C5.63196 15.3408 5.01704 15.9558 5.01704 16.7143C5.01704 17.4729 5.63196 18.0878 6.39051 18.0878C7.14906 18.0878 7.76398 17.4729 7.76398 16.7143C7.76398 15.9558 7.14906 15.3408 6.39051 15.3408Z" fill="#4A5056"/>
</svg>
