<svg width="15" height="15" viewBox="0 0 15 15" fill="none" xmlns="http://www.w3.org/2000/svg">
<path fill-rule="evenodd" clip-rule="evenodd" d="M10.4421 0L10.8101 0.367962L14.029 3.5869L14.397 3.95486L14.0848 4.37116C13.6675 4.92752 13.0126 5.25495 12.3172 5.25495H12.2907L9.45936 8.93573C10.0059 10.4408 9.9621 12.1025 9.32784 13.5824L8.97874 14.397L8.35209 13.7703L4.91364 10.3319L1.79707 13.4484L1.37281 13.8727L0.524281 13.0242L0.948545 12.5999L4.06511 9.48335L0.626652 6.04489L0 5.41824L0.814564 5.06914C2.29449 4.43489 3.9562 4.39105 5.46125 4.93762L9.14204 2.10625V2.0798C9.14204 1.38435 9.46947 0.729494 10.0258 0.312226L10.4421 0ZM10.4247 1.67966C10.3709 1.80439 10.342 1.94031 10.342 2.0798V2.40169V2.69713L10.1079 2.87727L5.92325 6.0962L5.64441 6.31069L5.32107 6.17211C4.31865 5.7425 3.21328 5.64726 2.16521 5.88639L5.3379 9.05908L8.51059 12.2318C8.74972 11.1837 8.65448 10.0783 8.22487 9.07591L8.08629 8.75257L8.30078 8.47373L11.5197 4.28912L11.6998 4.05495H11.9953H12.3172C12.4567 4.05495 12.5926 4.02611 12.7173 3.97226L10.4247 1.67966Z" fill="black"/>
</svg>
