<svg width="21" height="21" viewBox="0 0 21 21" fill="none" xmlns="http://www.w3.org/2000/svg">
<path fill-rule="evenodd" clip-rule="evenodd" d="M10.5 0.875C5.18426 0.875 0.875 5.18426 0.875 10.5C0.875 15.8157 5.18426 20.125 10.5 20.125C15.8157 20.125 20.125 15.8157 20.125 10.5C20.125 5.18426 15.8157 0.875 10.5 0.875ZM2.19882 10.0625H6.35096C6.43871 7.40527 7.31271 5.25845 8.18232 3.75912C8.52356 3.17078 8.86524 2.68011 9.16086 2.2948C5.34703 2.91248 2.40298 6.12508 2.19882 10.0625ZM6.37269 11.375H2.233C2.62383 15.111 5.48929 18.1106 9.16084 18.7052C8.86523 18.3199 8.52355 17.8292 8.18232 17.2409C7.36095 15.8247 6.53567 13.8309 6.37269 11.375ZM7.68843 11.375H13.3116C13.1514 13.5444 12.4188 15.3126 11.6823 16.5824C11.266 17.3002 10.8505 17.855 10.5415 18.2279L10.5 18.2777L10.4585 18.2279C10.1495 17.855 9.73401 17.3002 9.31768 16.5824C8.58122 15.3126 7.84857 13.5444 7.68843 11.375ZM13.3357 10.0625H7.66427C7.75127 7.69272 8.53231 5.7717 9.31768 4.41762C9.73401 3.69981 10.1495 3.14497 10.4585 2.77216L10.5 2.72233L10.5415 2.77216C10.8505 3.14497 11.266 3.69981 11.6823 4.41762C12.4677 5.7717 13.2487 7.69272 13.3357 10.0625ZM14.6273 11.375C14.4643 13.8309 13.639 15.8247 12.8177 17.2409C12.4764 17.8292 12.1348 18.3199 11.8392 18.7052C15.5107 18.1106 18.3762 15.111 18.767 11.375H14.6273ZM18.8012 10.0625H14.649C14.5613 7.40527 13.6873 5.25845 12.8177 3.75912C12.4764 3.17078 12.1348 2.68011 11.8391 2.2948C15.653 2.91248 18.597 6.12508 18.8012 10.0625Z" fill="white"/>
</svg>
