<svg width="15" height="15" viewBox="0 0 15 15" fill="none" xmlns="http://www.w3.org/2000/svg">
<path fill-rule="evenodd" clip-rule="evenodd" d="M0.801758 0.938843H1.60176H6.75918H7.55918V1.73884V6.89626V7.69626H6.75918H1.60176H0.801758V6.89626V1.73884V0.938843ZM2.40176 2.53884V6.09626H5.95918V2.53884H2.40176ZM7.89321 2.2282H8.69321H13.8506H14.6506V3.8282H13.8506H8.69321H7.89321V2.2282ZM7.89321 4.80691H8.69321H13.8506H14.6506V6.40691H13.8506H8.69321H7.89321V4.80691ZM7.89321 8.0303H8.69321H13.8506H14.6506V8.8303V13.9877V14.7877H13.8506H8.69321H7.89321V13.9877V8.8303V8.0303ZM9.49321 9.6303V13.1877H13.0506V9.6303H9.49321ZM0.801758 9.31965H1.60176H6.75918H7.55918V10.9197H6.75918H1.60176H0.801758V9.31965ZM0.801758 11.8984H1.60176H6.75918H7.55918V13.4984H6.75918H1.60176H0.801758V11.8984Z" fill="#4A5056"/>
</svg>
