<svg width="23" height="23" viewBox="0 0 23 23" fill="none" xmlns="http://www.w3.org/2000/svg">
<path fill-rule="evenodd" clip-rule="evenodd" d="M0.246094 0H1.04609H9.84943H10.6494V0.8V9.60333V10.4033H9.84943H1.04609H0.246094V9.60333V0.8V0ZM1.84609 1.6V8.80333H9.04943V1.6H1.84609ZM12.3507 2.20083H13.1507H21.954H22.754V3.80083H21.954H13.1507H12.3507V2.20083ZM12.3507 6.6025H13.1507H21.954H22.754V8.2025H21.954H13.1507H12.3507V6.6025ZM12.3507 12.1046H13.1507H21.954H22.754V12.9046V21.7079V22.5079H21.954H13.1507H12.3507V21.7079V12.9046V12.1046ZM13.9507 13.7046V20.9079H21.154V13.7046H13.9507ZM0.246094 14.3054H1.04609H9.84943H10.6494V15.9054H9.84943H1.04609H0.246094V14.3054ZM0.246094 18.7071H1.04609H9.84943H10.6494V20.3071H9.84943H1.04609H0.246094V18.7071Z" fill="#4A5056"/>
</svg>
