<svg width="27" height="27" viewBox="0 0 27 27" fill="none" xmlns="http://www.w3.org/2000/svg">
<path fill-rule="evenodd" clip-rule="evenodd" d="M2.1875 10.6875C2.1875 15.3819 5.99308 19.1875 10.6875 19.1875C13.0348 19.1875 15.1592 18.2366 16.6979 16.6979C18.2367 15.1592 19.1875 13.0348 19.1875 10.6875C19.1875 5.99307 15.3819 2.18749 10.6875 2.18749C5.99308 2.18749 2.1875 5.99307 2.1875 10.6875ZM10.6875 20.1875C5.44079 20.1875 1.1875 15.9342 1.1875 10.6875C1.1875 5.44078 5.44079 1.18749 10.6875 1.18749C15.9342 1.18749 20.1875 5.44078 20.1875 10.6875C20.1875 13.1308 19.2646 15.3593 17.7493 17.0422L19.6875 18.9804L19.9687 18.6991L20.3223 19.0527L24.8223 23.5527L25.1758 23.9062L24.8223 24.2598L24.2598 24.8223L23.9062 25.1758L23.5527 24.8223L19.0527 20.3223L18.6991 19.9687L18.9804 19.6875L17.0422 17.7493C15.3593 19.2646 13.1308 20.1875 10.6875 20.1875Z" fill="#4A5056"/>
</svg>
