<svg width="16" height="16" viewBox="0 0 16 16" fill="none" xmlns="http://www.w3.org/2000/svg">
<path fill-rule="evenodd" clip-rule="evenodd" d="M1.5 6.33332C1.5 9.0027 3.66396 11.1667 6.33333 11.1667C7.66816 11.1667 8.87581 10.6262 9.75102 9.751C10.6262 8.87579 11.1667 7.66815 11.1667 6.33332C11.1667 3.66394 9.00271 1.49999 6.33333 1.49999C3.66396 1.49999 1.5 3.66394 1.5 6.33332ZM6.33333 12.1667C3.11167 12.1667 0.5 9.55498 0.5 6.33332C0.499999 3.11166 3.11167 0.499987 6.33333 0.499987C9.55499 0.499987 12.1667 3.11166 12.1667 6.33332C12.1667 7.76394 11.6511 9.07491 10.7966 10.0895L11.6667 10.9595L11.8333 10.7929L12.1869 11.1464L14.8535 13.8131L15.2071 14.1667L14.8535 14.5202L14.5202 14.8535L14.1667 15.2071L13.8131 14.8535L11.1464 12.1869L10.7929 11.8333L10.9596 11.6667L10.0895 10.7966C9.07492 11.6511 7.76395 12.1667 6.33333 12.1667Z" fill="#4A5056"/>
</svg>
